<svg width="40" height="40" viewBox="0 0 40 40" fill="none" xmlns="http://www.w3.org/2000/svg">
<rect width="40" height="40" fill="#0173E5"/>
<g clip-path="url(#clip0_944_7084)">
<path d="M29.4961 10.246C29.8125 10.4804 30 10.8554 30 11.2499V14.0624V24.3749C30 26.1015 28.3203 27.4999 26.25 27.4999C24.1797 27.4999 22.5 26.1015 22.5 24.3749C22.5 22.6484 24.1797 21.2499 26.25 21.2499C26.6875 21.2499 27.1094 21.3124 27.5 21.4296V15.7421L17.5 18.7421V26.8749C17.5 28.6015 15.8203 29.9999 13.75 29.9999C11.6797 29.9999 10 28.6015 10 26.8749C10 25.1484 11.6797 23.7499 13.75 23.7499C14.1875 23.7499 14.6094 23.8124 15 23.9296V17.8124V14.9999C15 14.4491 15.3633 13.9608 15.8906 13.8007L28.3906 10.0507C28.7695 9.93741 29.1797 10.0077 29.4961 10.246Z" fill="white"/>
</g>
<defs>
<clipPath id="clip0_944_7084">
<rect width="20" height="20" fill="white" transform="translate(10 10)"/>
</clipPath>
</defs>
</svg>
