<svg width="40" height="40" viewBox="0 0 40 40" fill="none" xmlns="http://www.w3.org/2000/svg">
<rect width="40" height="40" rx="20" fill="white"/>
<path d="M21.2308 13.2308C21.2308 12.55 20.6808 12 20 12C19.3192 12 18.7692 12.55 18.7692 13.2308V18.7692H13.2308C12.55 18.7692 12 19.3192 12 20C12 20.6808 12.55 21.2308 13.2308 21.2308H18.7692V26.7692C18.7692 27.45 19.3192 28 20 28C20.6808 28 21.2308 27.45 21.2308 26.7692V21.2308H26.7692C27.45 21.2308 28 20.6808 28 20C28 19.3192 27.45 18.7692 26.7692 18.7692H21.2308V13.2308Z" fill="black"/>
</svg>
